# AST/ASF file generated using VICON BodyLanguage
# -----------------------------------------------
:version 1.10
:name VICON
:units
  mass 1.0
  length 0.45
  angle deg
:documentation
   .ast/.asf automatically generated from VICON data using
   VICON BodyBuilder and BodyLanguage model FoxedUp or BRILLIANT.MOD
:root
   order TX TY TZ RX RY RZ
   axis XYZ
   position 0 0 0  
   orientation 0 0 0 
:bonedata
  begin
     id 1 
     name lhipjoint
     direction 0.570549 -0.739093 0.358072 
     length 2.41801 
     axis 0 0 0  XYZ
  end
  begin
     id 2 
     name lfemur
     direction 0.34202 -0.939693 0  
     length 7.44434  
     axis 0 0 20  XYZ
    dof rx ry rz
    limits (-160.0 20.0)
           (-70.0 70.0)
           (-60.0 70.0)
  end
  begin
     id 3 
     name ltibia
     direction 0.34202 -0.939693 0   
     length 7.60047   
     axis 0 0 20   XYZ
    dof rx
    limits (-10.0 170.0)
  end
  begin
     id 4 
     name lfoot
     direction 0.0909041 -0.249757 0.964032   
     length 2.03437   
     axis -90 7.62852e-016 20   XYZ
    dof rx rz
    limits (-45.0 90.0)
           (-70.0 20.0)
  end
  begin
     id 5 
     name ltoes
     direction 1.53547e-011 -4.2174e-011 1   
     length 1.02054   
     axis -90 7.62852e-016 20   XYZ
    dof rx
    limits (-90.0 20.0)
  end
  begin
     id 6 
     name rhipjoint
     direction -0.558096 -0.746754 0.361784   
     length 2.3932  
     axis 0 0 0  XYZ 
  end
  begin
     id 7 
     name rfemur
     direction -0.34202 -0.939693 0   
     length 7.3886   
     axis 0 0 -20   XYZ
    dof rx ry rz
    limits (-160.0 20.0)
           (-70.0 70.0)
           (-70.0 60.0)
  end
  begin
     id 8 
     name rtibia
     direction -0.34202 -0.939693 0   
     length 7.4839   
     axis 0 0 -20   XYZ
    dof rx
    limits (-10.0 170.0)
 end
 begin
     id 9 
     name rfoot
     direction -0.114619 -0.314914 0.942174   
     length 2.25127  
     axis -90 -7.62852e-016 -20   XYZ
    dof rx rz
    limits (-45.0 90.0)
           (-20.0 70.0)
  end
  begin
     id 10 
     name rtoes
     direction -1.53518e-011 -4.21881e-011 1   
     length 1.11821   
     axis -90 -7.62852e-016 -20   XYZ
    dof rx
    limits (-90.0 20.0)
  end
  begin
     id 11 
     name lowerback
     direction -0.00902269 0.996426 -0.0839821   
     length 2.25052   
     axis 0 0 0   XYZ
    dof rx ry rz
    limits (-20.0 45.0)
           (-30.0 30.0)
           (-30.0 30.0)
  end
  begin
     id 12 
     name upperback
     direction 0.0370973 0.999169 -0.0168941   
     length 2.24876   
     axis 0 0 0   XYZ
    dof rx ry rz
    limits (-20.0 45.0)
           (-30.0 30.0)
           (-30.0 30.0)
  end
  begin
     id 13 
     name thorax
     direction 0.0402726 0.998931 0.0227027   
     length 2.26408   
     axis 0 0 0   XYZ
    dof rx ry rz
    limits (-20.0 45.0)
           (-30.0 30.0)
           (-30.0 30.0)
  end
  begin
     id 14 
     name lowerneck
     direction -0.0733697 0.98508 0.155675   
     length 1.58204   
     axis 0 0 0   XYZ
    dof rx ry rz
    limits (-20.0 45.0)
           (-30.0 30.0)
           (-30.0 30.0)
  end
  begin
     id 15 
     name upperneck
     direction 0.0426554 0.993501 -0.105526   
     length 1.61222   
     axis 0 0 0   XYZ
    dof rx ry rz
    limits (-20.0 45.0)
           (-30.0 30.0)
           (-30.0 30.0)
  end
  begin
     id 16
     name head
     direction 0.020792 0.998384 -0.0528868  
     length 1.61527  
     axis 0 0 0   XYZ
    dof rx ry rz
    limits (-20.0 45.0)
           (-30.0 30.0)
           (-30.0 30.0)
  end
  begin
     id 17 
     name lclavicle
     direction 0.967109 0.155462 -0.201325  
     length 3.59357  
     axis 0 0 0   XYZ
    dof ry rz
    limits (-20.0 10.0)
           (0.0 20.0)
  end
  begin
     id 18 
     name lhumerus
     direction 1 -4.48968e-011 2.38195e-027   
     length 5.38154   
     axis 180 -30 -90   XYZ
    dof rx ry rz
    limits (-60.0 90.0)
           (-90.0 90.0)
           (-90.0 90.0)
  end
  begin
     id 19
     name lradius
     direction 1 -4.48961e-011 4.85371e-027   
     length 3.33312   
     axis 180 -30 -90   XYZ
    dof rx
    limits (-10.0 170.0)
  end
  begin
     id 20
     name lwrist
     direction 1 -4.48961e-011 4.76515e-027   
     length 1.66656   
     axis -3.27502e-015 90 90   XYZ
    dof ry
    limits (-180.0 0.0)
 end
  begin
     id 21 
     name lhand
     direction 1 -4.48951e-011 9.53074e-027   
     length 0.710789   
     axis -6.08098e-015 90 90   XYZ
    dof rx rz
    limits (-90.0 90.0)
           (-45.0 45.0)
  end
  begin
     id 22 
     name lfingers
     direction 1 -4.48953e-011 1.90613e-026   
     length 0.573057   
     axis -1.21619e-014 90 90   XYZ
    dof rx
    limits (0.0 90.0)
  end
  begin
     id 23
     name lthumb
     direction 0.707107 -6.34973e-011 0.707107   
     length 0.822798   
     axis -90 45 -9.86923e-015   XYZ
    dof rx rz
    limits (-45.0 45.0)
           (-45.0 45.0)
  end
  begin
     id 24 
     name rclavicle
     direction -0.9585 0.265289 -0.104398   
     length 3.42039  
     axis 0 0 0   XYZ 
    dof ry rz
    limits (-10.0 20.0)
           (-20.0 0.0)
  end
  begin
     id 25 
     name rhumerus
     direction -1 -4.48977e-011 2.21478e-027  
     length 5.16954   
     axis 180 30 90   XYZ
    dof rx ry rz
    limits (-90.0 60.0)
           (-90.0 90.0)
           (-90.0 90.0)
  end
  begin
     id 26 
     name rradius
     direction -1 -4.48967e-011 5.63677e-027   
     length 3.38287   
     axis 180 30 90   XYZ
    dof rx
    limits (-10.0 170.0)
  end
  begin
     id 27 
     name rwrist
     direction -1 -4.48967e-011 4.76501e-027   
     length 1.69144   
     axis -3.27502e-015 -90 -90   XYZ
    dof ry
    limits (-180.0 0.0)
  end
  begin
     id 28
     name rhand
     direction -1 -4.48902e-011 9.53292e-027   
     length 0.817967   
     axis -6.08098e-015 -90 -90   XYZ
    dof rx rz
    limits (-90.0 90.0)
           (-45.0 45.0)
  end
  begin
     id 29
     name rfingers
     direction -1 -4.49012e-011 1.90561e-026   
     length 0.659466   
     axis -1.21619e-014 -90 -90   XYZ
    dof rx
    limits (0.0 90.0)
  end
  begin
     id 30
     name rthumb
     direction -0.707107 -6.34944e-011 0.707107   
     length 0.946865   
     axis -90 -45 9.86923e-015   XYZ
    dof rx rz
    limits (-45.0 45.0)
           (-45.0 45.0)
  end
:hierarchy
  begin
    root lhipjoint rhipjoint lowerback
    lhipjoint lfemur
    lfemur ltibia
    ltibia lfoot
    lfoot ltoes
    rhipjoint rfemur
    rfemur rtibia
    rtibia rfoot
    rfoot rtoes
    lowerback upperback
    upperback thorax
    thorax lowerneck lclavicle rclavicle
    lowerneck upperneck
    upperneck head
    lclavicle lhumerus
    lhumerus lradius
    lradius lwrist
    lwrist lhand lthumb
    lhand lfingers
    rclavicle rhumerus
    rhumerus rradius
    rradius rwrist
    rwrist rhand rthumb
    rhand rfingers
  end

#!OML:ASF F:\twosubjects\two\wednesday\Session 1\Justin1.ASF
:FULLY-SPECIFIED
:DEGREES
178
root 15.0978 17.7477 -1.52932 -176.94 1.12917 -184.669
lowerback 0.786743 -3.27425 -7.3149
upperback 3.67101 -4.18211 1.41524
thorax 4.02595 -2.29854 5.43785
lowerneck -9.04445 -1.44472 -11.3082
upperneck 36.799 5.62465 -0.582148
head 13.9986 2.29456 2.91033
rclavicle 2.44505e-014 1.31198e-014
rhumerus -26.8024 -12.8478 -78.476
rradius 27.082
rwrist -6.47038
rhand -11.6764 19.1813
rfingers 7.12502
rthumb 14.3688 -10.3014
lclavicle 2.44505e-014 1.31198e-014
lhumerus -45.6782 -41.9472 89.1133
lradius 48.1553
lwrist -0.276239
lhand 0.335267 34.4553
lfingers 7.12502
lthumb 25.9115 62.7095
rfemur -30.2762 0.424579 14.8249
rtibia 27.599
rfoot -7.26787 -13.4114
rtoes 7.80742
lfemur 1.68258 3.65156 -28.9831
ltibia 18.5522
lfoot -16.5357 -3.38812
ltoes -5.7289
179
root 15.1028 17.7364 -1.6775 -176.764 0.887923 -184.7
lowerback -0.855141 -3.46058 -6.60792
upperback 4.84475 -4.20598 0.777071
thorax 6.09877 -2.33326 4.23775
lowerneck -9.89744 -1.27633 -10.7977
upperneck 36.0832 5.29199 -0.20875
head 13.8374 2.17232 2.89706
rclavicle 3.19049e-014 -1.63003e-014
rhumerus -25.5762 -14.9199 -79.3283
rradius 26.3858
rwrist -5.56131
rhand -11.0375 19.235
rfingers 7.12502
rthumb 14.9844 -10.2029
lclavicle 3.19049e-014 -1.63003e-014
lhumerus -43.2621 -42.9948 86.7202
lradius 48.2046
lwrist 0.0268564
lhand 0.026563 34.4499
lfingers 7.12502
lthumb 25.6158 62.747
rfemur -30.1188 0.405211 14.8489
rtibia 24.6382
rfoot -7.04835 -13.2158
rtoes 8.79027
lfemur 2.26342 3.99797 -28.8912
ltibia 18.1449
lfoot -16.4666 -3.94221
ltoes -4.3793
180
root 15.1081 17.7335 -1.80912 -176.535 0.56094 -184.177
lowerback -0.878894 -3.47976 -6.03469
upperback 4.7874 -4.26441 0.84416
thorax 6.01203 -2.33611 3.98484
lowerneck -9.66865 -1.35491 -10.2867
upperneck 35.9081 5.09531 -0.522583
head 13.7358 2.12358 2.64469
rclavicle 3.8763e-014 4.37326e-015
rhumerus -26.2461 -16.0221 -79.0163
rradius 25.8005
rwrist -5.07938
rhand -11.254 19.2783
rfingers 7.12502
rthumb 14.7758 -10.175
lclavicle 3.8763e-014 4.37326e-015
lhumerus -43.2681 -43.4184 86.7414
lradius 48.1021
lwrist -0.0727116
lhand -0.115055 34.0977
lfingers 7.12502
lthumb 25.4802 62.4142
rfemur -30.0556 0.643385 15.3918
rtibia 21.9834
rfoot -7.18443 -12.867
rtoes 7.69128
lfemur 2.72754 3.95492 -28.2347
ltibia 17.6472
lfoot -16.2199 -4.3259
ltoes -3.71269
181
root 15.1162 17.7259 -1.94876 -176.412 0.204619 -183.875
lowerback -0.799161 -3.54362 -5.68026
upperback 4.62559 -4.38314 0.821234
thorax 5.77337 -2.37345 3.76464
lowerneck -9.09982 -1.38941 -9.9599
upperneck 35.7865 4.92157 -0.565059
head 13.5669 2.11404 2.53235
rclavicle -1.98785e-014 1.19271e-015
rhumerus -27.259 -17.1348 -78.6253
rradius 25.2472
rwrist -4.31296
rhand -11.5727 18.7645
rfingers 7.12502
rthumb 14.4688 -10.7111
lclavicle -1.98785e-014 1.19271e-015
lhumerus -43.6256 -43.7681 86.8887
lradius 48.1751
lwrist -0.000149674
lhand 0.334916 34.2656
lfingers 7.12502
lthumb 25.9111 62.5199
rfemur -29.9229 0.947534 15.6315
rtibia 19.6707
rfoot -7.36344 -12.2351
rtoes 4.79179
lfemur 3.35891 3.87225 -27.7967
ltibia 17.1188
lfoot -15.9257 -4.75463
ltoes -4.112
182
root 15.1178 17.7127 -2.09897 -176.251 -0.131773 -184.447
lowerback -0.956151 -3.56887 -6.27393
upperback 4.71705 -4.81213 0.769419
thorax 6.04491 -2.79675 3.97682
lowerneck -9.26606 -1.17952 -10.479
upperneck 35.5944 5.14567 -0.192914
head 13.4805 2.17165 2.78909
rclavicle -3.6477e-014 -1.98785e-015
rhumerus -27.4548 -17.499 -78.3575
rradius 24.7054
rwrist -3.58564
rhand -11.8994 18.1119
rfingers 7.12502
rthumb 14.1539 -11.386
lclavicle -3.6477e-014 -1.98785e-015
lhumerus -43.1846 -43.4596 86.6149
lradius 48.0945
lwrist -0.10813
lhand 0.574582 34.3374
lfingers 7.12502
lthumb 26.1406 62.5579
rfemur -29.9194 0.831634 14.9571
rtibia 17.7149
rfoot -7.47601 -11.191
rtoes 1.52162
lfemur 4.00815 3.70747 -28.3537
ltibia 16.5995
lfoot -15.6982 -5.14547
ltoes -4.58113
183
root 15.117 17.6976 -2.24424 -176.059 -0.498529 -184.927
lowerback -1.11742 -3.80399 -6.69285
upperback 4.91131 -5.11395 0.729958
thorax 6.42135 -2.98767 4.12005
lowerneck -9.85019 -1.04618 -10.9027
upperneck 35.4348 5.32299 0.00827661
head 13.5101 2.17896 2.96545
rclavicle 1.55052e-014 9.54166e-015
rhumerus -27.4335 -17.8913 -78.0754
rradius 24.292
rwrist -3.02808
rhand -11.6229 18.5096
rfingers 7.12502
rthumb 14.4203 -10.9695
lclavicle 1.55052e-014 9.54166e-015
lhumerus -42.6048 -43.3906 86.278
lradius 48.0545
lwrist -0.370538
lhand 0.61532 34.1892
lfingers 7.12502
lthumb 26.1796 62.4039
rfemur -30.1001 0.669728 14.3871
rtibia 16.3511
rfoot -8.10761 -10.1138
rtoes -0.282536
lfemur 4.72643 3.32713 -28.7995
ltibia 15.8932
lfoot -15.5724 -5.38628
ltoes -4.09075
184
root 15.1231 17.6827 -2.38913 -175.976 -0.933066 -184.767
lowerback -1.16672 -3.94998 -6.41712
upperback 5.03065 -5.32632 0.733747
thorax 6.57615 -3.09006 3.9424
lowerneck -10.1718 -1.08104 -10.8628
upperneck 35.489 5.29591 -0.0317164
head 13.6084 2.14659 2.94781
rclavicle 4.50247e-014 -2.0276e-014
rhumerus -27.7896 -18.6141 -77.7665
rradius 23.8901
rwrist -2.70085
rhand -11.1467 18.9876
rfingers 7.12502
rthumb 14.8791 -10.4581
lclavicle 4.50247e-014 -2.0276e-014
lhumerus -42.4574 -43.4169 86.0583
lradius 48.1518
lwrist -0.77495
lhand 0.984914 34.1524
lfingers 7.12502
lthumb 26.5334 62.3141
rfemur -30.0992 0.63612 14.5402
rtibia 15.4056
rfoot -9.00219 -9.07149
rtoes -2.71193
lfemur 5.52473 2.8744 -28.4629
ltibia 15.2888
lfoot -15.4299 -5.85724
ltoes -2.31015
185
root 15.1395 17.679 -2.53155 -175.859 -1.16609 -184.582
lowerback -0.930619 -4.07133 -6.60911
upperback 4.92026 -5.51142 1.07392
thorax 6.40397 -3.19301 4.41194
lowerneck -10.248 -1.1471 -11.2338
upperneck 35.6316 5.39956 -0.138183
head 13.6927 2.13129 2.99313
rclavicle 2.68359e-014 -1.59028e-015
rhumerus -28.235 -19.107 -76.9466
rradius 23.2925
rwrist -2.29208
rhand -10.9675 18.7901
rfingers 7.12502
rthumb 15.0518 -10.6427
lclavicle 2.68359e-014 -1.59028e-015
lhumerus -42.5521 -43.095 86.5328
lradius 47.9714
lwrist -1.0095
lhand 1.1033 33.9666
lfingers 7.12502
lthumb 26.6467 62.1112
rfemur -30.0921 0.918655 14.7406
rtibia 14.6633
rfoot -9.38447 -8.36693
rtoes -6.68474
lfemur 6.00885 2.73779 -28.0799
ltibia 15.0358
lfoot -15.2994 -6.31084
ltoes -3.23343
186
root 15.1536 17.6758 -2.67047 -175.668 -1.35213 -184.193
lowerback 0.00425703 -4.10099 -6.84674
upperback 4.12868 -5.59427 1.70814
thorax 5.13475 -3.18411 5.31553
lowerneck -9.3941 -1.26017 -11.5561
upperneck 35.8204 5.56117 -0.542685
head 13.6159 2.18085 2.90795
rclavicle -4.16454e-014 5.56597e-015
rhumerus -29.8357 -19.0593 -75.4139
rradius 22.9569
rwrist -2.0265
rhand -10.5584 18.5614
rfingers 7.12502
rthumb 15.4459 -10.8414
lclavicle -4.16454e-014 5.56597e-015
lhumerus -43.9626 -43.0201 88.369
lradius 47.786
lwrist -1.16051
lhand 0.9845 33.7537
lfingers 7.12502
lthumb 26.533 61.9155
rfemur -30.2774 1.23151 15.237
rtibia 14.4032
rfoot -9.1422 -8.07796
rtoes -9.23673
lfemur 6.34006 2.68852 -27.4997
ltibia 14.8595
lfoot -15.1537 -6.5432
ltoes -6.38076
187
root 15.1572 17.658 -2.81802 -175.72 -1.37398 -183.997
lowerback 0.546108 -4.17006 -6.89824
upperback 3.88528 -5.7312 2.0182
thorax 4.63059 -3.23762 5.71552
lowerneck -9.14419 -1.17724 -11.7554
upperneck 35.7505 5.81611 -0.77593
head 13.5317 2.26045 2.87651
rclavicle 4.4329e-014 3.33958e-014
rhumerus -30.6243 -19.1289 -74.5522
rradius 22.5455
rwrist -1.64002
rhand -10.3219 18.6656
rfingers 7.12502
rthumb 15.6736 -10.7196
lclavicle 4.4329e-014 3.33958e-014
lhumerus -44.33 -42.5784 88.9551
lradius 47.6915
lwrist -1.57941
lhand 1.38546 33.4877
lfingers 7.12502
lthumb 26.9167 61.591
rfemur -30.2912 0.861591 15.807
rtibia 14.7119
rfoot -8.53017 -7.10344
rtoes -7.99513
lfemur 7.05612 2.44351 -27.2316
ltibia 14.6843
lfoot -15.0494 -6.59678
ltoes -6.2748
188
root 15.1656 17.6385 -2.96705 -175.863 -1.13621 -184.442
lowerback 0.841283 -4.26963 -7.62016
upperback 4.16339 -5.91454 2.17869
thorax 4.88765 -3.39574 6.28537
lowerneck -10.2283 -1.00737 -12.2997
upperneck 35.8273 6.31488 -0.832369
head 13.7748 2.33695 3.03881
rclavicle -4.13472e-014 3.65764e-014
rhumerus -30.2579 -19.4087 -73.9835
rradius 21.8746
rwrist -0.901133
rhand -10.3203 19.0314
rfingers 7.12502
rthumb 15.6752 -10.3536
lclavicle -4.13472e-014 3.65764e-014
lhumerus -43.4219 -41.574 88.5347
lradius 47.6451
lwrist -1.96037
lhand 1.39269 33.5443
lfingers 7.12502
lthumb 26.9236 61.6465
rfemur -30.224 0.607624 15.635
rtibia 15.2981
rfoot -7.70276 -5.92504
rtoes -4.94485
lfemur 7.77833 2.14154 -27.7258
ltibia 14.7082
lfoot -15.0738 -6.5431
ltoes -4.33577
189
root 15.1826 17.6159 -3.1096 -175.893 -1.01165 -184.728
lowerback 1.02077 -4.18433 -8.05977
upperback 4.20713 -5.81098 2.11246
thorax 4.85677 -3.36323 6.48086
lowerneck -10.4124 -1.03457 -11.9918
upperneck 35.907 6.29629 -1.00157
head 13.8656 2.33621 2.9255
rclavicle 9.93923e-015 -8.74653e-015
rhumerus -30.8432 -20.5052 -73.3074
rradius 21.4848
rwrist -0.185228
rhand -10.1096 18.9854
rfingers 7.12502
rthumb 15.8781 -10.3836
lclavicle 9.93923e-015 -8.74653e-015
lhumerus -43.3127 -41.9126 88.581
lradius 47.5708
lwrist -1.88393
lhand -0.237258 34.0539
lfingers 7.12502
lthumb 25.3631 62.3871
rfemur -30.3735 1.02477 15.375
rtibia 16.2597
rfoot -7.07498 -5.49113
rtoes -3.49052
lfemur 8.33125 2.00571 -27.9276
ltibia 14.6604
lfoot -14.8048 -6.82898
ltoes -4.23287
190
root 15.195 17.5976 -3.25377 -175.989 -1.06655 -184.481
lowerback 1.02195 -3.86037 -7.57984
upperback 3.98048 -5.34075 1.73881
thorax 4.44109 -3.06337 5.85949
lowerneck -8.73095 -1.28301 -10.7563
upperneck 35.6067 5.48494 -1.14824
head 13.417 2.21889 2.50179
rclavicle -3.46879e-014 -1.35174e-014
rhumerus -32.8437 -22.5279 -72.4933
rradius 21.3916
rwrist 0.41042
rhand -9.72091 18.6533
rfingers 7.12502
rthumb 16.2524 -10.6855
lclavicle -3.46879e-014 -1.35174e-014
lhumerus -44.4767 -43.8909 89.2805
lradius 47.5314
lwrist -1.46968
lhand -1.4722 34.2975
lfingers 7.12502
lthumb 24.1795 62.7934
rfemur -30.5116 1.37105 15.726
rtibia 17.6249
rfoot -6.59243 -5.27233
rtoes -2.2065
lfemur 9.06402 2.0782 -27.4612
ltibia 14.3634
lfoot -14.3684 -7.29566
ltoes -5.99129
191
root 15.2007 17.5891 -3.40841 -176.137 -1.13873 -184.215
lowerback 1.18235 -4.24672 -7.19893
upperback 4.48194 -5.94033 2.03158
thorax 4.96871 -3.41634 5.90583
lowerneck -10.2744 -0.943355 -12.1606
upperneck 35.5018 6.1813 -0.706995
head 13.6313 2.29691 3.02776
rclavicle -7.87187e-014 1.35174e-014
rhumerus -31.6112 -22.0009 -72.7114
rradius 20.7719
rwrist 0.728555
rhand -9.96911 18.2252
rfingers 7.12502
rthumb 16.0134 -11.133
lclavicle -7.87187e-014 1.35174e-014
lhumerus -43.1514 -42.6362 88.4495
lradius 47.3458
lwrist -1.35988
lhand -1.41234 34.2167
lfingers 7.12502
lthumb 24.2369 62.7049
rfemur -30.4821 1.26366 16.27
rtibia 19.013
rfoot -5.90137 -4.80424
rtoes -0.19103
lfemur 9.85227 1.82003 -27.1208
ltibia 14.1651
lfoot -14.1899 -7.22093
ltoes -9.04462
192
root 15.2086 17.5788 -3.57099 -176.298 -1.19912 -184.552
lowerback 1.48721 -4.30697 -7.46383
upperback 4.42946 -6.03952 1.96897
thorax 4.77991 -3.46746 6.0099
lowerneck -10.031 -0.864705 -12.3652
upperneck 35.2563 6.27717 -0.747864
head 13.4632 2.3241 3.04101
rclavicle -3.43897e-014 -6.75868e-015
rhumerus -32.2442 -22.5056 -72.0125
rradius 20.3371
rwrist 1.38863
rhand -10.1994 18.1124
rfingers 7.12502
rthumb 15.7916 -11.2634
lclavicle -3.43897e-014 -6.75868e-015
lhumerus -43.53 -42.4888 88.7034
lradius 47.5289
lwrist -1.25007
lhand -1.21365 34.594
lfingers 7.12502
lthumb 24.4274 63.0567
rfemur -30.3601 1.04895 16.181
rtibia 20.3445
rfoot -5.53323 -4.22701
rtoes -0.833404
lfemur 10.642 1.58252 -27.4455
ltibia 14.0556
lfoot -14.0365 -7.01216
ltoes -13.7599
